<svg id="Capa_1" enable-background="new 0 0 511.983 511.983" height="512" viewBox="0 0 511.983 511.983" width="512" xmlns="http://www.w3.org/2000/svg"><g><g><path d="m105.332 177.645-70.34 170.145c12.894 68.81 123.489 119.019 221 119.019s208.106-50.21 221-119.019l-70.34-170.145z" fill="#677293"/></g><g><g><circle cx="255.992" cy="251.111" fill="#ffd0c6" r="145"/></g></g><g><g><path d="m160.992 251.111c0-71.555 51.833-130.998 120-142.846-8.122-1.412-16.474-2.154-25-2.154-80.081 0-145 64.919-145 145s64.919 145 145 145c8.526 0 16.878-.743 25-2.154-68.167-11.848-120-71.29-120-142.846z" fill="#f2b6ad"/></g></g><g><path d="m255.992 7.5c-202.745 0-233.894 271.48-221 340.29 15.622 0 29.479-10.016 34.374-24.851 17.245-52.258 84.608-117.232 186.626-117.232s169.381 64.974 186.626 117.232c4.895 14.835 18.752 24.851 34.374 24.851 12.893-68.81-18.256-340.29-221-340.29z" fill="#b7bcce"/></g><g><g><g><ellipse cx="176.435" cy="291.935" fill="#ffa1ac" rx="29.355" ry="23.377"/></g><g><ellipse cx="335.549" cy="291.935" fill="#ffa1ac" rx="29.355" ry="23.377"/></g></g><g><path d="m272.459 284.075c-2.093 0-4.174-.871-5.657-2.572-2.729-3.132-6.669-4.929-10.81-4.929s-8.081 1.796-10.81 4.929c-2.722 3.122-7.459 3.447-10.582.727-3.123-2.722-3.448-7.459-.727-10.582 5.579-6.402 13.641-10.073 22.119-10.073s16.54 3.671 22.119 10.073c2.721 3.123 2.396 7.86-.727 10.582-1.422 1.237-3.177 1.845-4.925 1.845z"/></g></g><g><path d="m156.889 106.603c0-54.733 44.37-99.103 99.103-99.103-202.745 0-233.894 271.48-221 340.29 15.622 0 29.479-10.016 34.374-24.851 17.245-52.258 84.608-117.232 186.626-117.232-54.733-.001-99.103-44.371-99.103-99.104z" fill="#868eaf"/></g><g><path d="m368.336 504.483h-224.689c-10.086 0-18.594-7.511-19.846-17.519l-15.703-125.62c-1.119-8.953 5.862-16.861 14.884-16.861h266.018c9.022 0 16.003 7.908 14.884 16.861l-15.703 125.62c-1.25 10.008-9.758 17.519-19.845 17.519z" fill="#f9f5f3"/></g><g><path d="m195.853 486.964-15.703-125.62c-1.119-8.953 5.862-16.861 14.884-16.861h-72.051c-9.022 0-16.003 7.908-14.884 16.861l15.703 125.62c1.251 10.009 9.759 17.519 19.846 17.519h72.051c-10.087 0-18.595-7.511-19.846-17.519z" fill="#e7e7ef"/></g><g><circle cx="255.992" cy="424.483" fill="#e7e7ef" r="30"/></g><g><path d="m477.414 225.462c-8.954-43.229-28.041-104.896-68.122-153.185-39.807-47.96-91.385-72.277-153.3-72.277-41.633 0-78.977 11.175-110.995 33.214-27.564 18.974-51.215 45.996-70.294 80.315-2.013 3.62-.709 8.187 2.911 10.199s8.187.709 10.199-2.911c39.035-70.215 95.619-105.817 168.179-105.817 57.242 0 104.936 22.494 141.759 66.857 38.107 45.911 56.368 105.088 64.976 146.647 9.523 45.976 10.85 87.255 7.936 111.059-9.677-2.192-17.728-9.294-20.922-18.974-6.582-19.947-19.855-40.848-37.374-58.852-19.503-20.044-43.975-36.377-70.769-47.236-3.838-1.555-8.211.295-9.768 4.134-1.556 3.839.295 8.212 4.134 9.768 22.972 9.309 41.866 21.826 56.924 35.417-2.456 26.883-12.616 52.054-29.533 73.162h-214.726c-16.911-21.102-27.077-46.29-29.533-73.174 5.08-4.559 10.479-8.91 16.165-12.989 23.919-17.159 64.281-37.614 120.731-37.614 17.956 0 35.567 2.103 52.347 6.249 4.022.996 8.086-1.46 9.08-5.481s-1.46-8.086-5.481-9.08c-17.956-4.438-36.778-6.688-55.945-6.688-60.437 0-103.767 21.983-129.475 40.425-30.997 22.237-54.424 52.109-64.273 81.958-3.193 9.676-11.25 16.782-20.928 18.975-4.909-39.481 2.175-122.356 34.22-194.126 1.689-3.782-.008-8.217-3.791-9.906-3.78-1.69-8.217.008-9.906 3.791-35.338 79.143-41.31 172.007-34.219 209.85 6.481 34.586 35.82 66.669 82.724 90.597l6.016 48.125c1.716 13.733 13.447 24.089 27.288 24.089h224.688c13.84 0 25.571-10.356 27.288-24.089l6.016-48.126c46.9-23.929 76.246-56.022 82.724-90.596 4.413-23.563 3.977-70.953-6.951-123.71zm-433.073 128.816c14.866-3.262 27.253-14.158 32.147-28.989 5.442-16.491 15.606-33.072 29.213-48.142 3.683 21.505 11.907 41.802 24.241 59.836h-6.958c-6.451 0-12.599 2.773-16.868 7.609s-6.258 11.281-5.458 17.681l7.409 59.271c-33.791-19.034-55.963-42.44-63.726-67.266zm336.399 131.755c-.78 6.242-6.113 10.95-12.404 10.95h-224.688c-6.291 0-11.624-4.708-12.404-10.95l-15.703-125.62c-.271-2.165.376-4.258 1.82-5.894s3.44-2.537 5.623-2.537h266.016c2.182 0 4.179.901 5.623 2.537s2.09 3.729 1.82 5.894zm23.178-64.493 7.408-59.267c.8-6.4-1.189-12.845-5.458-17.681-4.27-4.836-10.417-7.609-16.868-7.609h-6.957c12.323-18.015 20.534-38.279 24.222-59.754 14.91 16.645 24.537 33.838 29.23 48.06 4.896 14.84 17.279 25.729 32.147 28.988-7.762 24.819-29.939 48.228-63.724 67.263z"/><path d="m255.992 386.983c-20.678 0-37.5 16.822-37.5 37.5s16.822 37.5 37.5 37.5 37.5-16.822 37.5-37.5-16.823-37.5-37.5-37.5zm0 60c-12.407 0-22.5-10.093-22.5-22.5s10.093-22.5 22.5-22.5 22.5 10.093 22.5 22.5-10.094 22.5-22.5 22.5z"/></g></g></svg>